<?xml version="1.0" encoding="UTF-8"?>
<svg version="1.1" xmlns="http://www.w3.org/2000/svg" width="262" height="74">
<path d="M0 0 C1.9367822 0.50672239 1.9367822 0.50672239 4.0625 -0.6875 C7.81689506 -2.05273457 11.03649607 -1.7741706 14.8125 -0.6875 C17.27443808 0.85488609 19.22401523 2.74218866 21.25 4.8125 C21.77787109 5.32425781 22.30574219 5.83601562 22.84960938 6.36328125 C24.18618868 7.66382954 25.50117699 8.98649017 26.8125 10.3125 C27.3075 10.8075 27.3075 10.8075 27.8125 11.3125 C27.93812235 13.07997729 27.98826558 14.85310292 28 16.625 C28.01417969 17.59050781 28.02835938 18.55601563 28.04296875 19.55078125 C27.81123224 22.32769158 27.23390844 23.94723141 25.8125 26.3125 C26.4725 27.3025 27.1325 28.2925 27.8125 29.3125 C28.85458656 33.21702687 28.8909734 36.41111005 27.8125 40.3125 C23.34880232 45.83467201 17.77857008 51.29046959 10.8125 53.3125 C4.72949605 52.88562253 4.72949605 52.88562253 1.8125 51.0625 C-1.48946762 49.82426214 -4.06419149 51.96624633 -7.1875 53.3125 C-11.71631232 53.50521542 -13.93575525 51.90505449 -17.25 49.0625 C-18.56273966 47.81275169 -19.87525635 46.56276911 -21.1875 45.3125 C-22.1775 44.57 -23.1675 43.8275 -24.1875 43.0625 C-27.26995469 38.8241248 -26.90636027 34.38992363 -26.1875 29.3125 C-25.16015625 26.97265625 -25.16015625 26.97265625 -24.1875 25.3125 C-24.8475 24.3225 -25.5075 23.3325 -26.1875 22.3125 C-27.20947965 19.24656105 -27.56867205 16.52896548 -27.1875 13.3125 C-25.33058599 10.11930207 -22.90857145 7.78431299 -20.1875 5.3125 C-19.55328125 4.71953125 -18.9190625 4.1265625 -18.265625 3.515625 C-12.41747791 -1.73271213 -7.55407506 -2.37413787 0 0 Z M-10.1875 5.3125 C-11.45766773 6.74550975 -12.72121359 8.18859359 -13.8828125 9.7109375 C-15.70519679 11.94799606 -17.8806906 13.59887016 -20.1875 15.3125 C-19.61297254 19.24325644 -19.61297254 19.24325644 -17.1875 22.3125 C-13.74700013 22.47633333 -11.75172131 21.73972513 -9.015625 19.66796875 C-4.54172842 15.52802654 -4.54172842 15.52802654 -2.5 9.9375 C-2.96345022 6.98204819 -2.96345022 6.98204819 -6.1875 5.3125 C-7.5075 5.3125 -8.8275 5.3125 -10.1875 5.3125 Z M4.9375 6.5 C3.58325214 8.28567116 3.58325214 8.28567116 3.98046875 10.62109375 C5.0211773 13.98751717 6.54291203 15.6769076 9 18.1875 C9.75667969 18.98929688 10.51335938 19.79109375 11.29296875 20.6171875 C13.76537682 22.65747651 13.76537682 22.65747651 17.11328125 22.0703125 C18.00402344 21.82023437 18.89476562 21.57015625 19.8125 21.3125 C20.1425 19.0025 20.4725 16.6925 20.8125 14.3125 C19.4925 13.6525 18.1725 12.9925 16.8125 12.3125 C16.8125 11.6525 16.8125 10.9925 16.8125 10.3125 C16.1525 10.3125 15.4925 10.3125 14.8125 10.3125 C14.503125 9.673125 14.19375 9.03375 13.875 8.375 C12.9779837 6.37639179 12.9779837 6.37639179 11.8125 5.3125 C8.97890458 5.0142268 7.37464622 4.95647406 4.9375 6.5 Z M-2.57421875 20.625 C-3.00347656 21.181875 -3.43273437 21.73875 -3.875 22.3125 C-4.638125 23.3025 -5.40125 24.2925 -6.1875 25.3125 C-3.2175 28.7775 -3.2175 28.7775 -0.1875 32.3125 C3.88688678 30.3914806 3.88688678 30.3914806 6.8125 27.3125 C6.71914164 24.41839098 5.79729822 23.29425786 3.9375 21.0625 C1.4978749 19.05339697 -0.08463952 18.26866585 -2.57421875 20.625 Z M-19 30.5 C-20.42449399 32.2749172 -20.42449399 32.2749172 -20.0234375 34.62109375 C-18.97857557 37.98515855 -17.45648283 39.67752592 -15 42.1875 C-14.24332031 42.98929688 -13.48664062 43.79109375 -12.70703125 44.6171875 C-10.24438321 46.64230387 -10.24438321 46.64230387 -6.94921875 46.1328125 C-4.30108018 45.58491329 -4.30108018 45.58491329 -3.1875 44.3125 C-2.51737578 41.5265814 -2.51737578 41.5265814 -3.1875 38.3125 C-4.7787871 36.53776694 -6.46809594 35.14927919 -8.36328125 33.70703125 C-10.1875 32.3125 -10.1875 32.3125 -11.66796875 30.63671875 C-14.12784929 28.49301823 -16.36187332 28.77157217 -19 30.5 Z M11.48828125 31.10546875 C10.70839844 31.89566406 9.92851563 32.68585937 9.125 33.5 C8.33738281 34.27730469 7.54976562 35.05460937 6.73828125 35.85546875 C4.70510763 38.44951785 4.15185852 40.07421449 3.8125 43.3125 C5.94308945 45.28526801 7.18297474 46.27847161 10.125 46.4375 C14.28819816 44.69476589 17.16361437 41.94668541 19.8125 38.3125 C20.63742653 35.81842388 20.75819738 33.97332832 20.8125 31.3125 C17.10239843 28.83909895 15.13529584 28.2920575 11.48828125 31.10546875 Z " fill="#BE2822" transform="translate(31.1875,7.6875)"/>
<path d="M0 0 C0 1.65 0 3.3 0 5 C0.99 5 1.98 5 3 5 C3 6.65 3 8.3 3 10 C2.01 10 1.02 10 0 10 C0 12.64 0 15.28 0 18 C1.32 18 2.64 18 4 18 C3.67 19.65 3.34 21.3 3 23 C-2.48076923 23.36538462 -2.48076923 23.36538462 -4.6875 21.8125 C-6.45312631 19.37425415 -6.30348915 17.78955493 -6.1875 14.8125 C-6.16042969 13.91144531 -6.13335937 13.01039062 -6.10546875 12.08203125 C-6.07066406 11.39496094 -6.03585938 10.70789062 -6 10 C-6.66 10 -7.32 10 -8 10 C-8.33 9.34 -8.66 8.68 -9 8 C-10.98 10.97 -10.98 10.97 -13 14 C-12.34 14.928125 -11.68 15.85625 -11 16.8125 C-9 20 -9 20 -9 23 C-12.14624993 23.26218749 -13.61837017 23.24754367 -16.3125 21.5 C-16.869375 21.005 -17.42625 20.51 -18 20 C-18.391875 20.495 -18.78375 20.99 -19.1875 21.5 C-21.55091715 23.45593143 -23.01435003 23.24207973 -26 23 C-25.53289205 20.38419547 -25.08770959 19.1007036 -23.3125 17.0625 C-22.879375 16.381875 -22.44625 15.70125 -22 15 C-22.62533375 12.47636012 -22.62533375 12.47636012 -24 10 C-24.66666667 8.33333333 -25.33333333 6.66666667 -26 5 C-20.46153846 4.63076923 -20.46153846 4.63076923 -18.125 6.5 C-17.75375 6.995 -17.3825 7.49 -17 8 C-16.67 7.505 -16.34 7.01 -16 6.5 C-12.82427253 4.11820439 -9.89753934 4.80831774 -6 5 C-5.896875 4.360625 -5.79375 3.72125 -5.6875 3.0625 C-5.460625 2.381875 -5.23375 1.70125 -5 1 C-2 0 -2 0 0 0 Z " fill="#F8FAFB" transform="translate(122,20)"/>
<path d="M0 0 C5.61 0 11.22 0 17 0 C17 1.65 17 3.3 17 5 C13.37 5 9.74 5 6 5 C6.33 5.99 6.66 6.98 7 8 C8.299375 7.979375 9.59875 7.95875 10.9375 7.9375 C12.29165633 7.91600546 13.64756083 7.92851801 15 8 C16 9 16 9 16 14 C12.7 14 9.4 14 6 14 C6 15.32 6 16.64 6 18 C9.3 18 12.6 18 16 18 C16.38218767 19.65614657 16.71395102 21.32457024 17 23 C16 24 16 24 12.40234375 24.09765625 C10.91402745 24.09191272 9.42573704 24.07889891 7.9375 24.0625 C5.318125 24.041875 2.69875 24.02125 0 24 C0 16.08 0 8.16 0 0 Z " fill="#F7F8FA" transform="translate(78,19)"/>
<path d="M0 0 C2.9375 1.875 2.9375 1.875 5 4 C5 4.66 5 5.32 5 6 C4.01 6.495 4.01 6.495 3 7 C3.350625 7.515625 3.70125 8.03125 4.0625 8.5625 C5.38015596 11.9884055 4.79870221 14.47239857 4 18 C1.67404054 19.16297973 0.21276769 19.16600691 -2.375 19.1875 C-3.53128906 19.20876953 -3.53128906 19.20876953 -4.7109375 19.23046875 C-7.21834888 18.97801607 -8.83261902 18.25193467 -11 17 C-11.10832169 14.91781638 -11.18573541 12.83400871 -11.25 10.75 C-11.29640625 9.58984375 -11.3428125 8.4296875 -11.390625 7.234375 C-11 4 -11 4 -9.19921875 1.609375 C-5.98562037 -0.74231689 -3.88686656 -0.54552513 0 0 Z M-4 5 C-4.33 5.66 -4.66 6.32 -5 7 C-4.01 6.67 -3.02 6.34 -2 6 C-2.66 5.67 -3.32 5.34 -4 5 Z " fill="#FAFBFC" transform="translate(236,24)"/>
<path d="M0 0 C2 2 2 2 2.1953125 5.6953125 C2.182009 7.17200108 2.15814835 8.64862358 2.125 10.125 C2.11597656 10.87910156 2.10695312 11.63320313 2.09765625 12.41015625 C2.0740687 14.27357254 2.03819719 16.13682593 2 18 C0.33388095 18.042721 -1.33382885 18.04063832 -3 18 C-4.73956658 16.26043342 -4.37190386 13.8063378 -4.5625 11.4375 C-4.64628906 10.42558594 -4.73007813 9.41367187 -4.81640625 8.37109375 C-4.87699219 7.58863281 -4.93757812 6.80617188 -5 6 C-5.99 5.67 -6.98 5.34 -8 5 C-8 8.96 -8 12.92 -8 17 C-9.65 17.33 -11.3 17.66 -13 18 C-15.10022886 14.56326187 -15.24140313 11.86383187 -15.1875 7.875 C-15.18105469 6.82054687 -15.17460937 5.76609375 -15.16796875 4.6796875 C-15 2 -15 2 -14 0 C-9.05542564 -0.9218698 -4.93248537 -1.29184141 0 0 Z " fill="#F9FAFB" transform="translate(222,25)"/>
<path d="M0 0 C1.77283488 2.48196884 1.989184 4.75061596 2.25 7.75 C1.25 8.75 1.25 8.75 -1.25390625 8.84765625 C-2.76791016 8.83025391 -2.76791016 8.83025391 -4.3125 8.8125 C-5.32441406 8.80347656 -6.33632812 8.79445313 -7.37890625 8.78515625 C-8.55259766 8.76775391 -8.55259766 8.76775391 -9.75 8.75 C-9.75 9.41 -9.75 10.07 -9.75 10.75 C-9.09 10.42 -8.43 10.09 -7.75 9.75 C-4.25 9.5 -4.25 9.5 -0.75 9.75 C0.24 11.235 0.24 11.235 1.25 12.75 C-1.41044076 15.41044076 -2.86484902 15.762761 -6.6875 16.1875 C-9.62514452 16.04473597 -11.0073681 15.62667779 -13.75 14.3125 C-16.29159267 11.05608439 -16.41196997 8.98967419 -16.171875 4.94140625 C-15.53314827 1.62357574 -14.28385666 -0.0585564 -11.75 -2.25 C-7.13194776 -4.02617394 -3.91128228 -2.79377306 0 0 Z M-9.75 2.75 C-9.75 3.41 -9.75 4.07 -9.75 4.75 C-7.77 4.75 -5.79 4.75 -3.75 4.75 C-4.41 3.76 -5.07 2.77 -5.75 1.75 C-7.8245356 1.6009288 -7.8245356 1.6009288 -9.75 2.75 Z " fill="#F8F9FB" transform="translate(142.75,27.25)"/>
<path d="M0 0 C3.55247432 0.87379409 4.94828114 2.4927342 6.9375 5.4765625 C7.89021277 9.65838138 7.34222331 12.63192254 5.5 16.4765625 C2.25441212 19.00970426 0.17629543 19.20667674 -3.8671875 18.953125 C-7.59525134 18.14383 -9.02454536 16.63210517 -11.0625 13.4765625 C-11.755647 10.63523266 -11.76119998 8.31717881 -11.0625 5.4765625 C-8.05531939 0.96579158 -5.26030565 -0.3785826 0 0 Z M-4.0625 5.4765625 C-4.3925 7.7865625 -4.7225 10.0965625 -5.0625 12.4765625 C-3.17070797 13.1580448 -3.17070797 13.1580448 -1.0625 13.4765625 C1.22478734 11.63772369 1.22478734 11.63772369 1.0625 8.8515625 C1.02125 8.0678125 0.98 7.2840625 0.9375 6.4765625 C-0.7125 6.1465625 -2.3625 5.8165625 -4.0625 5.4765625 Z " fill="#FAFAFC" transform="translate(199.0625,24.5234375)"/>
<path d="M0 0 C1.17433594 -0.02578125 2.34867188 -0.0515625 3.55859375 -0.078125 C4.54988281 0.03015625 5.54117188 0.1384375 6.5625 0.25 C9.01641569 3.93087353 8.79052759 6.69355588 8.6875 10.9375 C8.67847656 11.63939453 8.66945312 12.34128906 8.66015625 13.06445312 C8.63663704 14.79311525 8.60076713 16.52160145 8.5625 18.25 C6.9125 18.25 5.2625 18.25 3.5625 18.25 C3.2325 14.29 2.9025 10.33 2.5625 6.25 C1.5725 6.25 0.5825 6.25 -0.4375 6.25 C-0.7675 10.21 -1.0975 14.17 -1.4375 18.25 C-3.0875 18.25 -4.7375 18.25 -6.4375 18.25 C-8.25866003 16.42883997 -7.5698508 13.94328236 -7.57421875 11.5234375 C-7.57035156 10.77320313 -7.56648437 10.02296875 -7.5625 9.25 C-7.56636719 8.49976563 -7.57023438 7.74953125 -7.57421875 6.9765625 C-7.5614765 -0.08264152 -6.90353408 0.09073648 0 0 Z " fill="#F9FAFB" transform="translate(153.4375,24.75)"/>
<path d="M0 0 C0.680625 -0.00515625 1.36125 -0.0103125 2.0625 -0.015625 C4 0.25 4 0.25 7 2.25 C7 3.24 7 4.23 7 5.25 C3.94736336 6.23120464 2.05263664 6.23120464 -1 5.25 C1.33317216 6.02772405 3.61435923 6.67415568 6 7.25 C8.26605505 13.45183486 8.26605505 13.45183486 7.1875 16.6875 C3.70365665 19.17595954 0.13684432 18.89964884 -4 18.25 C-6.5625 16.75 -6.5625 16.75 -8 15.25 C-7.49396008 13.08125748 -7.00016187 11.25032373 -6 9.25 C-6.66 9.25 -7.32 9.25 -8 9.25 C-7.6875 5.875 -7.6875 5.875 -7 2.25 C-4.00261059 0.25174039 -3.36652492 -0.02550398 0 0 Z M-4 11.25 C-3.67 11.91 -3.34 12.57 -3 13.25 C-2.34 13.25 -1.68 13.25 -1 13.25 C-1 12.59 -1 11.93 -1 11.25 C-1.99 11.25 -2.98 11.25 -4 11.25 Z " fill="#F8FAFB" transform="translate(172,24.75)"/>
<path d="M0 0 C1.98 0.66 3.96 1.32 6 2 C6.33 5.3 6.66 8.6 7 12 C8.65 11.67 10.3 11.34 12 11 C12 12.65 12 14.3 12 16 C12.66 16.33 13.32 16.66 14 17 C11.61435923 16.42415568 9.33317216 15.77772405 7 15 C5.906875 15.495 4.81375 15.99 3.6875 16.5 C-0.46480399 18.18907281 -1.82828951 18.53246508 -6 17 C-8.84128425 14.83938639 -11.44189891 12.48668202 -14 10 C-13.01 10 -12.02 10 -11 10 C-10.91571342 8.79362182 -10.91571342 8.79362182 -12.0625 7.1875 C-13.17970343 4.58069199 -12.79148355 3.64012345 -12 1 C-11.12988281 1.99193359 -11.12988281 1.99193359 -10.2421875 3.00390625 C-9.46101562 3.84824219 -8.67984375 4.69257812 -7.875 5.5625 C-7.10929687 6.40941406 -6.34359375 7.25632812 -5.5546875 8.12890625 C-3.08122003 10.36166314 -3.08122003 10.36166314 0.3046875 9.77734375 C1.19414062 9.52082031 2.08359375 9.26429687 3 9 C3.33 7.02 3.66 5.04 4 3 C2.68 2.34 1.36 1.68 0 1 C0 0.67 0 0.34 0 0 Z " fill="#B62B27" transform="translate(24,43)"/>
<path d="M0 0 C1.5 2.0625 1.5 2.0625 2 4 C1.67 4.33 1.34 4.66 1 5 C0.76807135 6.51469448 0.58784762 8.03754562 0.4375 9.5625 C0.35371094 10.38878906 0.26992188 11.21507812 0.18359375 12.06640625 C0.09271484 13.02353516 0.09271484 13.02353516 0 14 C-0.33 14 -0.66 14 -1 14 C-1.33 12.02 -1.66 10.04 -2 8 C-4.74210981 6.97172423 -4.74210981 6.97172423 -8 7 C-10.49501704 9.48642833 -10.49501704 9.48642833 -11.83984375 11.44140625 C-13.28769891 13.3865046 -15.04710668 14.58583587 -17 16 C-17.66 16.99 -18.32 17.98 -19 19 C-19 16.69 -19 14.38 -19 12 C-17.35 12 -15.7 12 -14 12 C-14 10.02 -14 8.04 -14 6 C-15.32 6.99 -16.64 7.98 -18 9 C-18.66 8.67 -19.32 8.34 -20 8 C-18.56771184 6.68181446 -17.12897516 5.37063296 -15.6875 4.0625 C-14.88699219 3.33160156 -14.08648437 2.60070312 -13.26171875 1.84765625 C-9.08633996 -1.56331813 -4.99885918 -1.44675406 0 0 Z " fill="#B52B2A" transform="translate(29,7)"/>
<path d="M0 0 C1.65 0.33 3.3 0.66 5 1 C5 6.28 5 11.56 5 17 C3.35 17.33 1.7 17.66 0 18 C-0.83102978 14.37908451 -1.13513041 11.02529448 -1.125 7.3125 C-1.12757813 6.35988281 -1.13015625 5.40726563 -1.1328125 4.42578125 C-1 2 -1 2 0 0 Z " fill="#FBFCFD" transform="translate(182,25)"/>
<path d="M0 0 C0 1.98 0 3.96 0 6 C-0.99 6.33 -1.98 6.66 -3 7 C-3.66 6.67 -4.32 6.34 -5 6 C-4.67 6.99 -4.34 7.98 -4 9 C-4.4375 11.1875 -4.4375 11.1875 -5 13 C-4.34 13.33 -3.68 13.66 -3 14 C-3.66 14.66 -4.32 15.32 -5 16 C-5.66 15.67 -6.32 15.34 -7 15 C-7.33 15.66 -7.66 16.32 -8 17 C-8 15.35 -8 13.7 -8 12 C-8.99 12 -9.98 12 -11 12 C-10.39215686 6.52941176 -10.39215686 6.52941176 -8.75 4.3125 C-3 0 -3 0 0 0 Z " fill="#C6271F" transform="translate(15,13)"/>
<path d="M0 0 C0.99 0.99 1.98 1.98 3 3 C2.67 3.66 2.34 4.32 2 5 C3.98 5 5.96 5 8 5 C8.33 6.32 8.66 7.64 9 9 C7.02 9.33 5.04 9.66 3 10 C3 9.34 3 8.68 3 8 C2.34 8 1.68 8 1 8 C1.33 8.99 1.66 9.98 2 11 C1.34 11 0.68 11 0 11 C-0.33 12.32 -0.66 13.64 -1 15 C-1.99 15 -2.98 15 -4 15 C-4 13.35 -4 11.7 -4 10 C-3.34 10 -2.68 10 -2 10 C-2.04125 8.906875 -2.0825 7.81375 -2.125 6.6875 C-2 3 -2 3 0 0 Z " fill="#C72117" transform="translate(41,26)"/>
<path d="M0 0 C0 0.99 0 1.98 0 3 C0.94978897 5.15028304 0.94978897 5.15028304 2 7 C0.68 7.33 -0.64 7.66 -2 8 C-2 9.32 -2 10.64 -2 12 C-3.32 11.34 -4.64 10.68 -6 10 C-6 9.34 -6 8.68 -6 8 C-8.91652174 7.83318891 -8.91652174 7.83318891 -12 8 C-13.95216435 9.95216435 -14.84826645 11.53199953 -16 14 C-16.33 12.02 -16.66 10.04 -17 8 C-12.53273547 4.68557793 -8.37992836 4.33990833 -3 4 C-3 3.01 -3 2.02 -3 1 C-2.01 0.67 -1.02 0.34 0 0 Z " fill="#B92925" transform="translate(26,30)"/>
<path d="M0 0 C1.98 0.66 3.96 1.32 6 2 C6.33 5.3 6.66 8.6 7 12 C8.65 11.67 10.3 11.34 12 11 C12 12.65 12 14.3 12 16 C12.66 16.33 13.32 16.66 14 17 C11.61435923 16.42415568 9.33317216 15.77772405 7 15 C5.906875 15.495 4.81375 15.99 3.6875 16.5 C-0.25547663 18.1039227 -1.97014948 18.08117941 -6 17 C-6 16.67 -6 16.34 -6 16 C-0.555 15.01 -0.555 15.01 5 14 C5.33 13.01 5.66 12.02 6 11 C5.34 11 4.68 11 4 11 C4 8.36 4 5.72 4 3 C2.68 2.34 1.36 1.68 0 1 C0 0.67 0 0.34 0 0 Z " fill="#BB2F2E" transform="translate(24,43)"/>
<path d="M0 0 C1.875 -0.36328125 1.875 -0.36328125 4 -0.3125 C4.70125 -0.30863281 5.4025 -0.30476562 6.125 -0.30078125 C8 0 8 0 10 2 C8.68 2 7.36 2 6 2 C5.67 2.99 5.34 3.98 5 5 C4.34 5 3.68 5 3 5 C2.34 6.98 1.68 8.96 1 11 C0.01 10.67 -0.98 10.34 -2 10 C-2.25 3.375 -2.25 3.375 0 0 Z " fill="#C62219" transform="translate(31,9)"/>
<path d="M0 0 C0.66 0 1.32 0 2 0 C2 1.65 2 3.3 2 5 C0.68 5.33 -0.64 5.66 -2 6 C-2 6.99 -2 7.98 -2 9 C-5.47325181 10.1577506 -8.36067448 10.06866652 -12 10 C-12.33 9.34 -12.66 8.68 -13 8 C-10.09399739 6.74335022 -8.20395416 6 -5 6 C-5 5.34 -5 4.68 -5 4 C-4.34 4 -3.68 4 -3 4 C-2.505 3.34 -2.01 2.68 -1.5 2 C-1.005 1.34 -0.51 0.68 0 0 Z " fill="#C92219" transform="translate(25,25)"/>
<path d="M0 0 C2.78938839 1.68644145 5.01252295 3.39947033 7 6 C7.78197331 9.75989905 7.81371844 13.24392286 7 17 C6.01 17.99 5.02 18.98 4 20 C4 15.38 4 10.76 4 6 C3.01 6 2.02 6 1 6 C0.01 7.485 0.01 7.485 -1 9 C-1.99 8.34 -2.98 7.68 -4 7 C-4 6.34 -4 5.68 -4 5 C-3.01 5 -2.02 5 -1 5 C-0.67 3.35 -0.34 1.7 0 0 Z " fill="#AC2E32" transform="translate(52,13)"/>
<path d="M0 0 C0.56203125 0.33773437 1.1240625 0.67546875 1.703125 1.0234375 C4.39726644 2.1689058 5.88038233 2.0470026 8.75 1.625 C9.94882812 1.45871094 9.94882812 1.45871094 11.171875 1.2890625 C11.77515625 1.19367187 12.3784375 1.09828125 13 1 C12.6875 2.9375 12.6875 2.9375 12 5 C8.11651516 6.29449495 5.09302664 6.13203312 1 6 C0 5 0 5 -0.0625 2.4375 C-0.041875 1.633125 -0.02125 0.82875 0 0 Z " fill="#C62219" transform="translate(17,53)"/>
<path d="M0 0 C2.97 0.33 5.94 0.66 9 1 C9.33 2.32 9.66 3.64 10 5 C9.030625 4.649375 8.06125 4.29875 7.0625 3.9375 C5.11347366 3.51082629 5.11347366 3.51082629 3 4 C-0.39010793 6.66059104 -3.19557111 9.73770517 -6 13 C-6.33 12.01 -6.66 11.02 -7 10 C-6.34 10 -5.68 10 -5 10 C-5 9.01 -5 8.02 -5 7 C-4.01 6.67 -3.02 6.34 -2 6 C-0.77479736 2.99152582 -0.77479736 2.99152582 0 0 Z " fill="#B4302D" transform="translate(42,34)"/>
<path d="M0 0 C0.66 0 1.32 0 2 0 C2 3.96 2 7.92 2 12 C1.01 11.67 0.02 11.34 -1 11 C-1 9.68 -1 8.36 -1 7 C-1.99 6.67 -2.98 6.34 -4 6 C-3.34 6 -2.68 6 -2 6 C-1.34 4.02 -0.68 2.04 0 0 Z " fill="#C72219" transform="translate(55,38)"/>
<path d="M0 0 C2.97 0 5.94 0 9 0 C8.67 1.98 8.34 3.96 8 6 C7.34 6 6.68 6 6 6 C6 5.34 6 4.68 6 4 C4.35 4 2.7 4 1 4 C0.67 2.68 0.34 1.36 0 0 Z " fill="#C02420" transform="translate(19,8)"/>
<path d="M0 0 C1.98 0.495 1.98 0.495 4 1 C4 3.97 4 6.94 4 10 C0.98531412 7.99020941 0.16210818 7.29263985 -1 4 C-0.625 1.75 -0.625 1.75 0 0 Z " fill="#C5231A" transform="translate(53,18)"/>
<path d="M0 0 C2 2 2 2 2 5 C3.32 5.33 4.64 5.66 6 6 C4.02 6.99 2.04 7.98 0 9 C0 7.35 0 5.7 0 4 C-3.16666667 5.83333333 -3.16666667 5.83333333 -5 9 C-5.66 8.34 -6.32 7.68 -7 7 C-4.69 4.69 -2.38 2.38 0 0 Z " fill="#B72F2C" transform="translate(27,21)"/>
<path d="M0 0 C0.99 0.66 1.98 1.32 3 2 C2.34 5.63 1.68 9.26 1 13 C0.34 12.67 -0.32 12.34 -1 12 C-1.144375 11.360625 -1.28875 10.72125 -1.4375 10.0625 C-1.86165035 7.61789145 -1.86165035 7.61789145 -5 6 C-5 5.34 -5 4.68 -5 4 C-4.34 4 -3.68 4 -3 4 C-3 4.66 -3 5.32 -3 6 C-2.01 5.67 -1.02 5.34 0 5 C-0.33 4.34 -0.66 3.68 -1 3 C-0.67 2.01 -0.34 1.02 0 0 Z " fill="#B2302F" transform="translate(38,23)"/>
<path d="M0 0 C1.48828125 1.14453125 1.48828125 1.14453125 3 3 C3.29296875 5.69921875 3.29296875 5.69921875 3.1875 8.6875 C3.16042969 9.68136719 3.13335937 10.67523438 3.10546875 11.69921875 C3.07066406 12.45847656 3.03585938 13.21773437 3 14 C2.01 14 1.02 14 0 14 C0.33 10.7 0.66 7.4 1 4 C0.34 3.67 -0.32 3.34 -1 3 C-0.67 2.01 -0.34 1.02 0 0 Z " fill="#AC3133" transform="translate(56,34)"/>
<path d="M0 0 C1.67542976 0.28604898 3.34385343 0.61781233 5 1 C4.67 2.32 4.34 3.64 4 5 C2.68 5.33 1.36 5.66 0 6 C-0.38218767 4.34385343 -0.71395102 2.67542976 -1 1 C-0.67 0.67 -0.34 0.34 0 0 Z " fill="#F4F9FB" transform="translate(182,18)"/>
<path d="M0 0 C0.66 0 1.32 0 2 0 C2 1.32 2 2.64 2 4 C2.99 4.33 3.98 4.66 5 5 C4.34 5.66 3.68 6.32 3 7 C2.34 6.67 1.68 6.34 1 6 C0.67 6.66 0.34 7.32 0 8 C0 6.35 0 4.7 0 3 C-0.99 3 -1.98 3 -3 3 C-2.67 2.34 -2.34 1.68 -2 1 C-1.34 1.33 -0.68 1.66 0 2 C0 1.34 0 0.68 0 0 Z " fill="#D81D15" transform="translate(7,22)"/>
<path d="M0 0 C0.66 0 1.32 0 2 0 C2.33 1.98 2.66 3.96 3 6 C1.68 6.33 0.36 6.66 -1 7 C-1 6.34 -1 5.68 -1 5 C-1.66 4.67 -2.32 4.34 -3 4 C-1.625 2 -1.625 2 0 0 Z " fill="#C12316" transform="translate(36,22)"/>
<path d="M0 0 C-0.61875 0.28875 -1.2375 0.5775 -1.875 0.875 C-5.19776568 2.63411124 -6.45223399 4.68335854 -8 8 C-8.33 6.02 -8.66 4.04 -9 2 C-5.5647952 -0.29013653 -4.014669 -0.17842973 0 0 Z " fill="#AD2D2E" transform="translate(18,36)"/>
<path d="M0 0 C0.66 0.66 1.32 1.32 2 2 C1.625 4.125 1.625 4.125 1 6 C-1.97 5.505 -1.97 5.505 -5 5 C-4.01 4.67 -3.02 4.34 -2 4 C-0.79117904 1.99983534 -0.79117904 1.99983534 0 0 Z " fill="#C3221A" transform="translate(49,49)"/>
<path d="M0 0 C5.66153846 1.47692308 5.66153846 1.47692308 7.375 4.125 C7.684375 5.053125 7.684375 5.053125 8 6 C5 6 5 6 3.61328125 4.6875 C2.40885417 3.125 1.20442708 1.5625 0 0 Z " fill="#A92C27" transform="translate(10,52)"/>
<path d="M0 0 C0 0.66 0 1.32 0 2 C-2.90600261 3.25664978 -4.79604584 4 -8 4 C-8 3.01 -8 2.02 -8 1 C-2.25 0 -2.25 0 0 0 Z " fill="#BE2925" transform="translate(20,29)"/>
<path d="M0 0 C0.66 0 1.32 0 2 0 C1.979375 0.94875 1.95875 1.8975 1.9375 2.875 C1.77448174 5.90666283 1.77448174 5.90666283 3 8 C1.68 7.67 0.36 7.34 -1 7 C-0.67 4.69 -0.34 2.38 0 0 Z " fill="#AD2F2D" transform="translate(34,14)"/>
<path d="M0 0 C1.32 0.33 2.64 0.66 4 1 C4.33 2.65 4.66 4.3 5 6 C3.0625 5.25 3.0625 5.25 1 4 C0.25 1.875 0.25 1.875 0 0 Z " fill="#C72118" transform="translate(35,55)"/>
<path d="M0 0 C0.66 0.33 1.32 0.66 2 1 C-1.465 3.97 -1.465 3.97 -5 7 C-5 6.01 -5 5.02 -5 4 C-4.34 4 -3.68 4 -3 4 C-3 3.01 -3 2.02 -3 1 C-2.01 0.67 -1.02 0.34 0 0 Z " fill="#A83230" transform="translate(40,40)"/>
</svg>
